# xmcd
#
# Track frame offsets:
#  150
#  17751
#  42108
#  69290
#  85850
#  103600
#  133533
#  159207
#  173751
#  185347
#  201165
#  215368
#  230531
#
# Disc length: 3230 seconds
#
# Revision: 0
# Processed by: cddbd v1.5.1PL0 Copyright (c) Steve Scherf et al.
# Submitted via: Collectorz.com_Music_Collector 6.9
#
DISCID=a00c9c0d
DTITLE=Various Artist - Texas Soul Sisters
DYEAR=2003
DGENRE=Blues -  Blues Female Vocalist
TTITLE0=Lavelle White - Flight 449
TTITLE1=Gloria Edwards - I'm Your Hoochie Mama
TTITLE2=Glenda Hargis - Rain Down Love
TTITLE3=Miss Candy - You Treat Me So Bad
TTITLE4=Lavelle White - I Want to Know
TTITLE5=Glenda Hargis - Feet Don't Fail Me Now
TTITLE6=Gloria Edwards - Better Think About It
TTITLE7=Lavelle White - Bad Song
TTITLE8=Gloria Edwards - H-Town
TTITLE9=Glenda Hargis - Keep Your Hands Off of Him
TTITLE10=Miss Candy - That's Why I Love You
TTITLE11=Gloria Edwards - Last Train to Nowhere
TTITLE12=Miss Candy - Miss Candy's Groove
EXTD=
EXTT0=
EXTT1=
EXTT2=
EXTT3=
EXTT4=
EXTT5=
EXTT6=
EXTT7=
EXTT8=
EXTT9=
EXTT10=
EXTT11=
EXTT12=
PLAYORDER=
